<svg width="25" height="24" viewBox="0 0 25 24" fill="none" xmlns="http://www.w3.org/2000/svg">
<path fill-rule="evenodd" clip-rule="evenodd" d="M16.9583 10.7951V8.375C16.9583 7.06332 15.895 6 14.5833 6H5.875C4.56332 6 3.5 7.06332 3.5 8.375V16.2917C3.5 17.6033 4.56332 18.6667 5.875 18.6667H14.5833C15.895 18.6667 16.9583 17.6033 16.9583 16.2917V13.8718L21.2482 16.936C21.4895 17.1083 21.8069 17.1314 22.0706 16.9957C22.3343 16.86 22.5 16.5883 22.5 16.2917V8.37508C22.5 8.07853 22.3343 7.80685 22.0706 7.67116C21.8069 7.53546 21.4895 7.55851 21.2482 7.73087L16.9583 10.7951ZM5.08333 8.375C5.08333 7.93777 5.43777 7.58333 5.875 7.58333H14.5833C15.0206 7.58333 15.375 7.93777 15.375 8.375V16.2917C15.375 16.7289 15.0206 17.0833 14.5833 17.0833H5.875C5.43777 17.0833 5.08333 16.7289 5.08333 16.2917V8.375ZM20.9167 14.7534L17.5287 12.3334L20.9167 9.91344V14.7534Z" fill="#EFF0FA" style="fill:#EFF0FA;fill:color(display-p3 0.9373 0.9412 0.9804);fill-opacity:1;"/>
</svg>
