<svg width="20" height="20" viewBox="0 0 20 20" fill="none" xmlns="http://www.w3.org/2000/svg">
<g clip-path="url(#clip0_1369_127)">
<path d="M6.66663 11.6667C6.66663 11.6667 7.91663 13.3334 9.99996 13.3334C12.0833 13.3334 13.3333 11.6667 13.3333 11.6667M12.5 7.50008H12.5083M7.49996 7.50008H7.50829M18.3333 10.0001C18.3333 14.6025 14.6023 18.3334 9.99996 18.3334C5.39759 18.3334 1.66663 14.6025 1.66663 10.0001C1.66663 5.39771 5.39759 1.66675 9.99996 1.66675C14.6023 1.66675 18.3333 5.39771 18.3333 10.0001ZM12.9166 7.50008C12.9166 7.7302 12.7301 7.91675 12.5 7.91675C12.2698 7.91675 12.0833 7.7302 12.0833 7.50008C12.0833 7.26996 12.2698 7.08341 12.5 7.08341C12.7301 7.08341 12.9166 7.26996 12.9166 7.50008ZM7.91663 7.50008C7.91663 7.7302 7.73008 7.91675 7.49996 7.91675C7.26984 7.91675 7.08329 7.7302 7.08329 7.50008C7.08329 7.26996 7.26984 7.08341 7.49996 7.08341C7.73008 7.08341 7.91663 7.26996 7.91663 7.50008Z" stroke="#667085" stroke-width="1.66667" stroke-linecap="round" stroke-linejoin="round"/>
</g>
<defs>
<clipPath id="clip0_1369_127">
<rect width="20" height="20" fill="white"/>
</clipPath>
</defs>
</svg>
