<svg width="19" height="18" viewBox="0 0 19 18" fill="none" xmlns="http://www.w3.org/2000/svg">
<path d="M5.16944 0.23964C4.84992 -0.07988 4.33187 -0.07988 4.01235 0.23964C3.69283 0.55916 3.69283 1.0772 4.01235 1.39672L5.07018 2.45455H2.95455C2.30356 2.45455 1.67924 2.71315 1.21892 3.17347C0.758603 3.63378 0.5 4.25811 0.5 4.90909V13.0909C0.5 13.7419 0.758603 14.3662 1.21892 14.8265C1.67924 15.2869 2.30356 15.5455 2.95455 15.5455H8.68182C9.13369 15.5455 9.5 15.1791 9.5 14.7273C9.5 14.2754 9.13369 13.9091 8.68182 13.9091H2.95455C2.73755 13.9091 2.52944 13.8229 2.376 13.6695C2.22256 13.516 2.13636 13.3079 2.13636 13.0909V4.90909C2.13636 4.6921 2.22256 4.48399 2.376 4.33055C2.52944 4.17711 2.73755 4.09091 2.95455 4.09091H5.07017L4.01235 5.14873C3.69283 5.46825 3.69283 5.98629 4.01235 6.30581C4.33187 6.62533 4.84992 6.62533 5.16944 6.30581L7.62075 3.8545C7.63206 3.84332 7.64304 3.8318 7.65369 3.81998C7.71287 3.75432 7.75954 3.68138 7.79369 3.60424C7.83865 3.50291 7.86364 3.39074 7.86364 3.27273C7.86364 3.15561 7.83903 3.04423 7.7947 2.94349C7.75949 2.86332 7.7108 2.78765 7.64863 2.71991C7.63976 2.71024 7.63066 2.70078 7.62134 2.69154L5.16944 0.23964Z" fill="white" style="fill:white;fill-opacity:1;"/>
<path d="M9.5 3.27273C9.5 2.82086 9.86631 2.45455 10.3182 2.45455H16.0455C16.6964 2.45455 17.3208 2.71315 17.7811 3.17347C18.2414 3.63378 18.5 4.25811 18.5 4.90909V13.0909C18.5 13.7419 18.2414 14.3662 17.7811 14.8265C17.3208 15.2869 16.6964 15.5455 16.0455 15.5455H13.9298L14.9876 16.6033C15.3071 16.9228 15.3071 17.4408 14.9876 17.7604C14.6681 18.0799 14.1501 18.0799 13.8305 17.7604L11.376 15.3058C11.2246 15.1544 11.145 14.9585 11.137 14.7603C11.1361 14.7383 11.1361 14.7163 11.137 14.6943C11.1408 14.5986 11.161 14.5071 11.195 14.4226C11.2349 14.3229 11.2953 14.2295 11.376 14.1487L13.8305 11.6942C14.1501 11.3747 14.6681 11.3747 14.9876 11.6942C15.3071 12.0137 15.3071 12.5318 14.9876 12.8513L13.9298 13.9091H16.0455C16.2624 13.9091 16.4706 13.8229 16.624 13.6695C16.7774 13.516 16.8636 13.3079 16.8636 13.0909V4.90909C16.8636 4.6921 16.7774 4.48399 16.624 4.33055C16.4706 4.17711 16.2624 4.09091 16.0455 4.09091H10.3182C9.86631 4.09091 9.5 3.7246 9.5 3.27273Z" fill="white" style="fill:white;fill-opacity:1;"/>
<path fill-rule="evenodd" clip-rule="evenodd" d="M9.50002 5.72727C7.69254 5.72727 6.22729 7.19252 6.22729 8.99999C6.22729 10.8075 7.69254 12.2727 9.50002 12.2727C11.3075 12.2727 12.7727 10.8075 12.7727 8.99999C12.7727 7.19252 11.3075 5.72727 9.50002 5.72727ZM7.86365 8.99999C7.86365 8.09626 8.59628 7.36363 9.50002 7.36363C10.4038 7.36363 11.1364 8.09626 11.1364 8.99999C11.1364 9.90373 10.4038 10.6364 9.50002 10.6364C8.59628 10.6364 7.86365 9.90373 7.86365 8.99999Z" fill="white" style="fill:white;fill-opacity:1;"/>
</svg>
