<svg width="25" height="24" viewBox="0 0 25 24" fill="none" xmlns="http://www.w3.org/2000/svg">
<path fill-rule="evenodd" clip-rule="evenodd" d="M9.80963 2.97631C10.4348 2.35119 11.2826 2 12.1667 2C13.0507 2 13.8986 2.35119 14.5237 2.97631C15.1488 3.60143 15.5 4.44928 15.5 5.33333V12C15.5 12.8841 15.1488 13.7319 14.5237 14.357C13.8986 14.9821 13.0507 15.3333 12.1667 15.3333C11.2826 15.3333 10.4348 14.9821 9.80963 14.357C9.18451 13.7319 8.83332 12.8841 8.83332 12V5.33333C8.83332 4.44928 9.18451 3.60143 9.80963 2.97631ZM12.1667 3.66667C11.7246 3.66667 11.3007 3.84226 10.9881 4.15482C10.6756 4.46738 10.5 4.89131 10.5 5.33333V12C10.5 12.442 10.6756 12.866 10.9881 13.1785C11.3007 13.4911 11.7246 13.6667 12.1667 13.6667C12.6087 13.6667 13.0326 13.4911 13.3452 13.1785C13.6577 12.866 13.8333 12.442 13.8333 12V5.33333C13.8333 4.89131 13.6577 4.46738 13.3452 4.15482C13.0326 3.84226 12.6087 3.66667 12.1667 3.66667Z" fill="#EFF0FA" style="fill:#EFF0FA;fill:color(display-p3 0.9373 0.9412 0.9804);fill-opacity:1;"/>
<path fill-rule="evenodd" clip-rule="evenodd" d="M6.33333 9.5C6.79357 9.5 7.16667 9.8731 7.16667 10.3333V12C7.16667 13.3261 7.69345 14.5979 8.63113 15.5355C9.56881 16.4732 10.8406 17 12.1667 17C13.4927 17 14.7645 16.4732 15.7022 15.5355C16.6399 14.5979 17.1667 13.3261 17.1667 12V10.3333C17.1667 9.8731 17.5398 9.5 18 9.5C18.4602 9.5 18.8333 9.8731 18.8333 10.3333V12C18.8333 13.7681 18.131 15.4638 16.8807 16.714C15.6305 17.9643 13.9348 18.6667 12.1667 18.6667C10.3986 18.6667 8.70286 17.9643 7.45262 16.714C6.20238 15.4638 5.5 13.7681 5.5 12V10.3333C5.5 9.8731 5.8731 9.5 6.33333 9.5Z" fill="#EFF0FA" style="fill:#EFF0FA;fill:color(display-p3 0.9373 0.9412 0.9804);fill-opacity:1;"/>
<path fill-rule="evenodd" clip-rule="evenodd" d="M12.1667 17C12.6269 17 13 17.3731 13 17.8333V21.1667C13 21.6269 12.6269 22 12.1667 22C11.7064 22 11.3333 21.6269 11.3333 21.1667V17.8333C11.3333 17.3731 11.7064 17 12.1667 17Z" fill="#EFF0FA" style="fill:#EFF0FA;fill:color(display-p3 0.9373 0.9412 0.9804);fill-opacity:1;"/>
<path fill-rule="evenodd" clip-rule="evenodd" d="M8 21.1666C8 20.7064 8.3731 20.3333 8.83333 20.3333H15.5C15.9602 20.3333 16.3333 20.7064 16.3333 21.1666C16.3333 21.6268 15.9602 21.9999 15.5 21.9999H8.83333C8.3731 21.9999 8 21.6268 8 21.1666Z" fill="#EFF0FA" style="fill:#EFF0FA;fill:color(display-p3 0.9373 0.9412 0.9804);fill-opacity:1;"/>
</svg>
