<svg width="29" height="28" viewBox="0 0 29 28" fill="none" xmlns="http://www.w3.org/2000/svg">
<path d="M11 18.0833H9.25002C7.62185 18.0833 6.80777 18.0833 6.14534 18.2843C4.65387 18.7367 3.48672 19.9039 3.03429 21.3953C2.83334 22.0578 2.83334 22.8718 2.83334 24.5M17.4167 8.75C17.4167 11.6495 15.0662 14 12.1667 14C9.26718 14 6.91668 11.6495 6.91668 8.75C6.91668 5.85051 9.26718 3.5 12.1667 3.5C15.0662 3.5 17.4167 5.85051 17.4167 8.75ZM13.3333 24.5L16.9516 23.4662C17.1249 23.4167 17.2115 23.392 17.2923 23.3549C17.364 23.3219 17.4323 23.2818 17.4959 23.2351C17.5676 23.1824 17.6313 23.1187 17.7587 22.9913L25.2917 15.4584C26.0972 14.6529 26.0972 13.3471 25.2917 12.5416C24.4863 11.7362 23.1804 11.7362 22.375 12.5417L14.842 20.0746C14.7146 20.2021 14.6509 20.2658 14.5983 20.3374C14.5516 20.4011 14.5114 20.4693 14.4785 20.5411C14.4414 20.6219 14.4166 20.7085 14.3671 20.8818L13.3333 24.5Z" stroke="#344054" stroke-width="2.33333" stroke-linecap="round" stroke-linejoin="round"/>
</svg>
