<svg width="20" height="20" viewBox="0 0 20 20" fill="none" xmlns="http://www.w3.org/2000/svg">
<g filter="url(#filter0_d_553_13709)">
<path d="M14.5486 0.905725L14.6528 1.11381L15.439 3.20462C15.5008 3.36927 15.6307 3.49919 15.7954 3.56096L17.814 4.31829C18.6999 4.65063 19.1759 5.59722 18.9399 6.49282L18.8831 6.67107L17.9439 8.74803C17.8712 8.90813 17.8712 9.09187 17.9439 9.25197L18.8358 11.2149C19.2272 12.0763 18.8945 13.0822 18.0943 13.5486L17.8862 13.6528L15.7954 14.439C15.6307 14.5008 15.5008 14.6307 15.439 14.7954L14.6817 16.814C14.3494 17.6999 13.4028 18.1759 12.5072 17.9399L12.3289 17.8831L10.252 16.9439C10.0919 16.8712 9.90813 16.8712 9.74803 16.9439L7.78511 17.8358C6.92372 18.2272 5.91778 17.8945 5.45141 17.0943L5.34718 16.8862L4.56096 14.7954C4.49919 14.6307 4.36927 14.5008 4.20462 14.439L2.18597 13.6817C1.30012 13.3494 0.82409 12.4028 1.06014 11.5072L1.11694 11.3289L2.05606 9.25197C2.12881 9.09187 2.12881 8.90813 2.05606 8.74803L1.16418 6.78511C0.772787 5.92372 1.10552 4.91778 1.90572 4.45141L2.11381 4.34718L4.20462 3.56096C4.36927 3.49919 4.49919 3.36927 4.56096 3.20462L5.31829 1.18597C5.65063 0.300118 6.59722 -0.17591 7.49282 0.0601429L7.67107 0.116938L9.74803 1.05606C9.90813 1.12881 10.0919 1.12881 10.252 1.05606L12.2149 0.164176C13.0763 -0.227213 14.0822 0.105523 14.5486 0.905725Z" fill="#1C92FF"/>
<path d="M8.60196 10.8376L12.9468 5.87208C13.1683 5.61891 13.5532 5.59326 13.8063 5.81478C14.0595 6.0363 14.0852 6.42112 13.8636 6.67429L9.09003 12.1298C8.85801 12.395 8.45007 12.4086 8.20092 12.1594L6.15509 10.1136C5.91722 9.87574 5.91722 9.49007 6.15509 9.25219C6.39296 9.01432 6.77863 9.01432 7.01651 9.25219L8.60196 10.8376Z" fill="white"/>
</g>
<defs>
<filter id="filter0_d_553_13709" x="0" y="0" width="20" height="20" filterUnits="userSpaceOnUse" color-interpolation-filters="sRGB">
<feFlood flood-opacity="0" result="BackgroundImageFix"/>
<feColorMatrix in="SourceAlpha" type="matrix" values="0 0 0 0 0 0 0 0 0 0 0 0 0 0 0 0 0 0 127 0" result="hardAlpha"/>
<feMorphology radius="1" operator="erode" in="SourceAlpha" result="effect1_dropShadow_553_13709"/>
<feOffset dy="1"/>
<feGaussianBlur stdDeviation="1"/>
<feComposite in2="hardAlpha" operator="out"/>
<feColorMatrix type="matrix" values="0 0 0 0 0.0666667 0 0 0 0 0.0470588 0 0 0 0 0.133333 0 0 0 0.08 0"/>
<feBlend mode="normal" in2="BackgroundImageFix" result="effect1_dropShadow_553_13709"/>
<feBlend mode="normal" in="SourceGraphic" in2="effect1_dropShadow_553_13709" result="shape"/>
</filter>
</defs>
</svg>
