<svg width="25" height="24" viewBox="0 0 25 24" fill="none" xmlns="http://www.w3.org/2000/svg">
<path fill-rule="evenodd" clip-rule="evenodd" d="M6.9 5.6C6.68782 5.6 6.48434 5.68428 6.33431 5.83431C6.18428 5.98434 6.1 6.18782 6.1 6.4V17.2686L7.93431 15.4343C8.08434 15.2843 8.28782 15.2 8.49999 15.2H18.1C18.3122 15.2 18.5156 15.1157 18.6657 14.9657C18.8157 14.8156 18.9 14.6122 18.9 14.4V6.4C18.9 6.18782 18.8157 5.98434 18.6657 5.83431C18.5156 5.68428 18.3122 5.6 18.1 5.6H6.9ZM5.20294 4.70294C5.65303 4.25286 6.26348 4 6.9 4H18.1C18.7365 4 19.3469 4.25286 19.797 4.70294C20.2471 5.15303 20.5 5.76348 20.5 6.4V14.4C20.5 15.0365 20.2471 15.647 19.797 16.097C19.3469 16.5471 18.7365 16.8 18.1 16.8H8.83136L5.86568 19.7657C5.63689 19.9945 5.29279 20.0629 4.99385 19.9391C4.69491 19.8153 4.5 19.5235 4.5 19.2V6.4C4.5 5.76348 4.75286 5.15303 5.20294 4.70294Z" fill="#EFF0FA" style="fill:#EFF0FA;fill:color(display-p3 0.9373 0.9412 0.9804);fill-opacity:1;"/>
</svg>
