<svg width="25" height="24" viewBox="0 0 25 24" fill="none" xmlns="http://www.w3.org/2000/svg">
<path d="M18.2403 6.23001C17.9338 5.9234 17.4367 5.92332 17.1301 6.22984C16.8235 6.53636 16.8234 7.0334 17.1299 7.34001C18.4544 8.6649 19.1985 10.4616 19.1985 12.335C19.1985 14.2084 18.4544 16.0051 17.1299 17.33C16.8234 17.6366 16.8235 18.1336 17.1301 18.4402C17.4367 18.7467 17.9338 18.7466 18.2403 18.44C19.8591 16.8207 20.7685 14.6247 20.7685 12.335C20.7685 10.0453 19.8591 7.84932 18.2403 6.23001Z" fill="#EFF0FA" style="fill:#EFF0FA;fill:color(display-p3 0.9373 0.9412 0.9804);fill-opacity:1;"/>
<path d="M15.4692 9.00108C15.1627 8.69447 14.6657 8.69439 14.359 9.00091C14.0524 9.30743 14.0524 9.80447 14.3589 10.1111C14.9475 10.6999 15.2782 11.4985 15.2782 12.3311C15.2782 13.1637 14.9475 13.9622 14.3589 14.5511C14.0524 14.8577 14.0524 15.3547 14.359 15.6612C14.6657 15.9678 15.1627 15.9677 15.4692 15.6611C16.3522 14.7778 16.8482 13.58 16.8482 12.3311C16.8482 11.0821 16.3522 9.88434 15.4692 9.00108Z" fill="#EFF0FA" style="fill:#EFF0FA;fill:color(display-p3 0.9373 0.9412 0.9804);fill-opacity:1;"/>
<path fill-rule="evenodd" clip-rule="evenodd" d="M12.1351 6.83992C12.1351 6.53816 11.9621 6.26311 11.6901 6.13239C11.4181 6.00167 11.0953 6.03843 10.8597 6.22693L7.14967 9.19494H4.28501C3.85146 9.19494 3.5 9.5464 3.5 9.97995V14.69C3.5 15.1235 3.85146 15.475 4.28501 15.475H7.14967L10.8597 18.443C11.0953 18.6315 11.4181 18.6683 11.6901 18.5375C11.9621 18.4068 12.1351 18.1318 12.1351 17.83V6.83992ZM7.91542 10.5929L10.5651 8.47322V16.1967L7.91542 14.077C7.77623 13.9656 7.60328 13.905 7.42503 13.905H5.07001V10.765H7.42503C7.60328 10.765 7.77623 10.7043 7.91542 10.5929Z" fill="#EFF0FA" style="fill:#EFF0FA;fill:color(display-p3 0.9373 0.9412 0.9804);fill-opacity:1;"/>
</svg>
