<svg width="48" height="48" viewBox="0 0 48 48" fill="none" xmlns="http://www.w3.org/2000/svg">
<g filter="url(#filter0_dd_8637_9961)">
<g clip-path="url(#clip0_8637_9961)">
<rect x="4" y="3" width="40" height="40" rx="10" fill="white"/>
<rect x="4" y="3" width="40" height="40" rx="10" fill="url(#paint0_linear_8637_9961)"/>
<path fill-rule="evenodd" clip-rule="evenodd" d="M24 5.54856C14.3618 5.54856 6.5485 13.3618 6.5485 23C6.5485 32.6382 14.3618 40.4515 24 40.4515C33.6381 40.4515 41.4514 32.6382 41.4514 23C41.4514 13.3618 33.6381 5.54856 24 5.54856ZM6.45142 23C6.45142 13.3082 14.3082 5.45148 24 5.45148C33.6918 5.45148 41.5485 13.3082 41.5485 23C41.5485 32.6918 33.6918 40.5486 24 40.5486C14.3082 40.5486 6.45142 32.6918 6.45142 23Z" fill="#D0D5DD"/>
<path fill-rule="evenodd" clip-rule="evenodd" d="M24 18.0974C21.2922 18.0974 19.0971 20.2925 19.0971 23.0003C19.0971 25.7081 21.2922 27.9032 24 27.9032C26.7078 27.9032 28.9029 25.7081 28.9029 23.0003C28.9029 20.2925 26.7078 18.0974 24 18.0974ZM19 23.0003C19 20.2389 21.2386 18.0003 24 18.0003C26.7614 18.0003 29 20.2389 29 23.0003C29 25.7617 26.7614 28.0003 24 28.0003C21.2386 28.0003 19 25.7617 19 23.0003Z" fill="#D0D5DD"/>
<path fill-rule="evenodd" clip-rule="evenodd" d="M23.9999 19.6501C22.1501 19.6501 20.6504 21.1498 20.6504 22.9996C20.6504 24.8495 22.1501 26.3492 23.9999 26.3492C25.8498 26.3492 27.3495 24.8495 27.3495 22.9996C27.3495 21.1498 25.8498 19.6501 23.9999 19.6501ZM20.5533 22.9996C20.5533 21.0961 22.0964 19.553 23.9999 19.553C25.9035 19.553 27.4465 21.0961 27.4465 22.9996C27.4465 24.9031 25.9035 26.4462 23.9999 26.4462C22.0964 26.4462 20.5533 24.9031 20.5533 22.9996Z" fill="#D0D5DD"/>
<path d="M23.9514 3H24.0485V43H23.9514V3Z" fill="#D0D5DD"/>
<path d="M44 22.9512L44 23.0483L4 23.0483L4 22.9512L44 22.9512Z" fill="#D0D5DD"/>
<path d="M37.2524 3H37.3495V43H37.2524V3Z" fill="#D0D5DD"/>
<path d="M17.3009 3H17.398V43H17.3009V3Z" fill="#D0D5DD"/>
<path d="M30.6018 3H30.6989V43H30.6018V3Z" fill="#D0D5DD"/>
<path d="M10.6504 3H10.7475V43H10.6504V3Z" fill="#D0D5DD"/>
<path d="M44 36.252L44 36.349L4 36.349L4 36.252L44 36.252Z" fill="#D0D5DD"/>
<path d="M44 16.3008L44 16.3979L4 16.3979L4 16.3008L44 16.3008Z" fill="#D0D5DD"/>
<path d="M44 29.6016L44 29.6986L4 29.6986L4 29.6016L44 29.6016Z" fill="#D0D5DD"/>
<path d="M44 9.65039L44 9.74748L4 9.74748L4 9.65039L44 9.65039Z" fill="#D0D5DD"/>
<path d="M18.9182 14.3856C20.4074 13.5052 22.1447 13 24 13C29.5228 13 34 17.4772 34 23C34 23.0331 33.9998 23.0662 33.9995 23.0993M15.3811 17.9259C14.5035 19.4134 14 21.1479 14 23C14 27.6596 17.1869 31.5748 21.5 32.685M32.7076 27.9206C31.3872 30.2522 29.1574 32.001 26.5 32.685M26.0893 17.3738C25.4387 17.1321 24.7348 17 24 17C20.6863 17 18 19.6863 18 23C18 23.7387 18.1335 24.4463 18.3777 25.0999M29.6251 20.9077C29.8675 21.5591 30 22.2641 30 23C30 26.3137 27.3137 29 24 29C23.2701 29 22.5707 28.8697 21.9237 28.631M24 21V25" stroke="#623EBA" stroke-width="2" stroke-linecap="round" stroke-linejoin="round"/>
</g>
<rect x="4.1875" y="3.1875" width="39.625" height="39.625" rx="9.8125" stroke="#D0D5DD" stroke-width="0.375"/>
</g>
<defs>
<filter id="filter0_dd_8637_9961" x="0.25" y="0.5" width="47.5" height="47.5" filterUnits="userSpaceOnUse" color-interpolation-filters="sRGB">
<feFlood flood-opacity="0" result="BackgroundImageFix"/>
<feColorMatrix in="SourceAlpha" type="matrix" values="0 0 0 0 0 0 0 0 0 0 0 0 0 0 0 0 0 0 127 0" result="hardAlpha"/>
<feOffset dy="1.25"/>
<feGaussianBlur stdDeviation="1.25"/>
<feColorMatrix type="matrix" values="0 0 0 0 0.0627451 0 0 0 0 0.0941176 0 0 0 0 0.156863 0 0 0 0.06 0"/>
<feBlend mode="normal" in2="BackgroundImageFix" result="effect1_dropShadow_8637_9961"/>
<feColorMatrix in="SourceAlpha" type="matrix" values="0 0 0 0 0 0 0 0 0 0 0 0 0 0 0 0 0 0 127 0" result="hardAlpha"/>
<feOffset dy="1.25"/>
<feGaussianBlur stdDeviation="1.875"/>
<feColorMatrix type="matrix" values="0 0 0 0 0.0627451 0 0 0 0 0.0941176 0 0 0 0 0.156863 0 0 0 0.1 0"/>
<feBlend mode="normal" in2="effect1_dropShadow_8637_9961" result="effect2_dropShadow_8637_9961"/>
<feBlend mode="normal" in="SourceGraphic" in2="effect2_dropShadow_8637_9961" result="shape"/>
</filter>
<linearGradient id="paint0_linear_8637_9961" x1="24" y1="3" x2="24" y2="43" gradientUnits="userSpaceOnUse">
<stop stop-color="white"/>
<stop offset="1" stop-color="#D0D5DD"/>
</linearGradient>
<clipPath id="clip0_8637_9961">
<rect x="4" y="3" width="40" height="40" rx="10" fill="white"/>
</clipPath>
</defs>
</svg>
